<svg width="800" height="160" viewBox="0 0 800 160" fill="none" xmlns="http://www.w3.org/2000/svg">
<g clip-path="url(#clip0_1_2)">
<path d="M69.604 106.504C49.764 106.504 33.616 90.224 33.616 70.2C33.616 60.488 37.336 51.368 44.136 44.52C50.968 37.664 59.992 33.888 69.604 33.888C79.252 33.888 88.276 37.664 95.1 44.52C101.936 51.392 105.652 60.492 105.652 70.2C105.652 90.224 89.504 106.504 69.604 106.504ZM147.54 0C157.06 15.056 162.604 32.928 162.604 52.044C162.572 82.196 144.608 108.164 118.936 119.716C131.48 107.016 139.276 89.516 139.276 70.2C139.276 51.428 132.028 33.816 118.88 20.56C105.708 7.316 88.216 0 69.604 0C50.996 0 33.528 7.328 20.404 20.56C7.244 33.828 0 51.428 0 70.18V70.2V70.292C0 94.24 9.264 116.748 26.056 133.676C42.884 150.632 65.24 159.964 89.004 159.984C148.092 160 196.192 111.608 196.216 52.068C196.216 33.58 192.38 15.976 185.488 0H147.54Z" fill="white"/>
<path d="M660.148 127.568C646.244 127.568 634.936 115.66 634.936 101.016C634.936 86.36 646.244 74.432 660.148 74.432C674.052 74.432 685.356 86.36 685.356 101.016C685.352 115.66 674.052 127.568 660.148 127.568ZM660.148 59.64C638.388 59.64 620.696 78.188 620.696 100.988C620.696 123.816 638.388 142.36 660.148 142.36C681.908 142.36 699.604 123.812 699.604 100.988C699.6 78.188 681.908 59.64 660.148 59.64Z" fill="white"/>
<path d="M302.052 93.868C305.1 82.556 314.652 74.432 325.992 74.432C337.34 74.432 346.952 82.556 349.964 93.868H302.052ZM365.476 100.988C365.476 78.188 347.772 59.64 325.992 59.64C304.22 59.64 286.516 78.188 286.516 100.988C286.516 123.816 304.22 142.36 325.992 142.36C336.576 142.36 346.508 138.028 353.984 130.192L355.216 128.892L345.132 118.352L343.812 119.776C339.06 124.796 332.728 127.568 325.988 127.568C314.648 127.568 305.096 119.444 302.048 108.132H364.944L365.476 100.988Z" fill="white"/>
<path d="M399.024 93.868C402.052 82.556 411.664 74.432 423 74.432C434.352 74.432 443.924 82.556 446.948 93.868H399.024ZM462.448 100.988C462.448 78.188 444.752 59.64 423 59.64C401.236 59.64 383.528 78.188 383.528 100.988C383.528 123.816 401.236 142.36 423 142.36C433.584 142.36 443.5 138.028 450.96 130.192L452.228 128.892L442.168 118.352L440.82 119.776C436.048 124.796 429.72 127.568 423 127.568C411.664 127.568 402.056 119.444 399.024 108.132H461.956L462.448 100.988Z" fill="white"/>
<path d="M220.948 93.868C224 82.556 233.592 74.432 244.924 74.432C256.272 74.432 265.848 82.556 268.904 93.868H220.948ZM284.404 100.988C284.404 78.188 266.704 59.64 244.92 59.64C223.176 59.64 205.468 78.188 205.468 100.988C205.468 123.816 223.176 142.36 244.92 142.36C255.512 142.36 265.436 138.028 272.884 130.192L274.148 128.892L264.088 118.352L262.776 119.776C257.988 124.796 251.66 127.568 244.916 127.568C233.584 127.568 223.992 119.444 220.94 108.132H283.88L284.404 100.988Z" fill="white"/>
<path d="M367.348 139.964H381.592V32.052H367.348V139.964Z" fill="white"/>
<path d="M522.472 118.38L521.124 119.796C516.372 124.792 510.048 127.564 503.3 127.564C489.408 127.564 478.072 115.66 478.072 101.004C478.072 86.356 489.408 74.424 503.3 74.424C510.028 74.424 516.352 77.176 521.1 82.184L522.444 83.58L532.472 73.044L531.24 71.768C523.792 63.94 513.892 59.632 503.3 59.632C481.552 59.632 463.856 78.18 463.856 100.98C463.856 123.808 481.556 142.352 503.3 142.352C513.892 142.352 523.796 138.02 531.26 130.156L532.492 128.884L522.472 118.38Z" fill="white"/>
<path d="M628.16 71.776C620.716 63.948 610.808 59.64 600.26 59.64C578.5 59.64 560.796 78.188 560.796 100.988V139.964H575.04V100.988C575.052 86.36 586.368 74.432 600.26 74.432C606.976 74.432 613.308 77.184 618.064 82.192L619.404 83.588L629.388 73.052L628.16 71.776Z" fill="white"/>
<path d="M549.776 59.756V36.176V32.056H535.52V36.176V139.964H549.776V74.112H563.012V59.756H549.776Z" fill="white"/>
<path d="M740.84 59.756C719.068 59.756 701.404 78.332 701.404 101.132V139.964H715.612V101.132C715.612 86.48 726.928 74.548 740.844 74.548C754.74 74.548 766.052 86.476 766.052 101.132V139.964H780.3V101.132C780.296 78.332 762.592 59.756 740.84 59.756Z" fill="white"/>
<path d="M800 61.476C800 67.528 795.288 72.276 789.152 72.276C783.084 72.276 778.244 67.524 778.244 61.476C778.244 55.556 783.084 50.808 789.152 50.808C795.288 50.808 800 55.556 800 61.476ZM780.956 61.476C780.956 66.224 784.44 70 789.216 70C793.864 70 797.288 66.224 797.288 61.544C797.288 56.792 793.868 52.952 789.152 52.952C784.44 52.952 780.956 56.792 780.956 61.476ZM787.476 67.072H785.024V56.404C785.992 56.208 787.348 56.08 789.092 56.08C791.092 56.08 791.996 56.404 792.772 56.856C793.352 57.312 793.8 58.16 793.8 59.196C793.8 60.368 792.896 61.28 791.604 61.672V61.804C792.64 62.192 793.22 62.976 793.544 64.408C793.868 66.036 794.06 66.684 794.316 67.072H791.668C791.348 66.684 791.156 65.708 790.832 64.472C790.64 63.304 789.992 62.78 788.64 62.78H787.476V67.072ZM787.536 61.02H788.7C790.052 61.02 791.156 60.564 791.156 59.46C791.156 58.484 790.448 57.832 788.896 57.832C788.248 57.832 787.8 57.9 787.536 57.964V61.02Z" fill="white"/>
</g>
<defs>
<clipPath id="clip0_1_2">
<rect width="800" height="160" fill="white"/>
</clipPath>
</defs>
</svg>
